<?xml version="1.0" standalone="no"?>
<!DOCTYPE svg PUBLIC "-//W3C//DTD SVG 20010904//EN"
 "http://www.w3.org/TR/2001/REC-SVG-20010904/DTD/svg10.dtd">
<svg version="1.0" xmlns="http://www.w3.org/2000/svg"
 width="64.000000pt" height="64.000000pt" viewBox="0 0 64.000000 64.000000"
 preserveAspectRatio="xMidYMid meet">

<g transform="translate(0.000000,64.000000) scale(0.100000,-0.100000)"
fill="#000000" stroke="none">
<path d="M0 320 l0 -320 320 0 320 0 0 320 0 320 -320 0 -320 0 0 -320z m108
293 c-10 -2 -28 -2 -40 0 -13 2 -5 4 17 4 22 1 32 -1 23 -4z m149 1 c-3 -3
-12 -4 -19 -1 -8 3 -5 6 6 6 11 1 17 -2 13 -5z m286 -3 l67 -1 0 -291 c0 -273
-1 -291 -17 -284 -10 4 -42 12 -71 17 -32 6 -51 15 -49 22 2 6 0 21 -4 33 -6
16 -3 27 8 39 13 12 14 20 6 33 -15 24 0 45 25 39 22 -6 32 8 32 46 0 12 7 31
15 44 14 19 14 26 1 69 -9 27 -18 60 -21 76 -3 15 -18 40 -33 55 -15 15 -19
18 -9 7 23 -29 36 -74 31 -114 -2 -20 0 -30 6 -26 7 4 9 -15 5 -56 -7 -76 -20
-106 -27 -60 -2 17 -1 31 4 31 4 0 8 17 8 39 0 46 -20 73 -143 190 -48 46 -86
86 -84 87 6 6 108 -27 136 -43 26 -15 26 -15 6 4 -46 43 -46 48 -2 46 23 -1
72 -2 110 -2z m-516 -83 c-2 -13 -4 -5 -4 17 -1 22 1 32 4 23 2 -10 2 -28 0
-40z m0 -50 c-3 -8 -6 -5 -6 6 -1 11 2 17 5 13 3 -3 4 -12 1 -19z m393 -123
c8 -9 8 -15 2 -15 -18 0 -42 12 -42 21 0 14 26 10 40 -6z m-339 -96 c3 -35 11
-75 19 -89 23 -42 53 -80 65 -80 6 0 24 -13 39 -29 19 -20 23 -30 14 -33 -16
-7 -167 0 -179 8 -14 8 -11 72 4 77 9 3 8 9 -4 22 -13 13 -16 31 -12 83 8 123
44 150 54 41z m285 0 c9 -15 -23 -10 -35 5 -10 12 -8 13 9 9 11 -3 23 -9 26
-14z m-120 -46 c-10 -10 -19 5 -10 18 6 11 8 11 12 0 2 -7 1 -15 -2 -18z m168
-6 c15 -7 16 -11 5 -19 -10 -7 -7 -8 12 -5 25 4 26 2 25 -49 -1 -38 -6 -55
-18 -63 -14 -9 -16 -8 -11 6 5 13 2 15 -12 9 -12 -4 -26 1 -42 15 -22 22 -32
46 -14 35 5 -4 17 -3 26 1 14 5 11 9 -16 24 l-34 18 30 1 c23 0 27 3 15 10 -8
6 -28 7 -45 4 -27 -6 -28 -5 -16 10 15 17 63 19 95 3z m156 -183 c0 -2 -7 -4
-15 -4 -8 0 -15 4 -15 10 0 5 7 7 15 4 8 -4 15 -8 15 -10z m-83 0 c-3 -3 -12
-4 -19 -1 -8 3 -5 6 6 6 11 1 17 -2 13 -5z"/>
</g>
</svg>
